%TF.GenerationSoftware,KiCad,Pcbnew,(7.0.0)*%
%TF.CreationDate,2023-12-08T18:55:42+01:00*%
%TF.ProjectId,mg_farm_bms,6d675f66-6172-46d5-9f62-6d732e6b6963,rev?*%
%TF.SameCoordinates,Original*%
%TF.FileFunction,Paste,Bot*%
%TF.FilePolarity,Positive*%
%FSLAX46Y46*%
G04 Gerber Fmt 4.6, Leading zero omitted, Abs format (unit mm)*
G04 Created by KiCad (PCBNEW (7.0.0)) date 2023-12-08 18:55:42*
%MOMM*%
%LPD*%
G01*
G04 APERTURE LIST*
G04 Aperture macros list*
%AMRoundRect*
0 Rectangle with rounded corners*
0 $1 Rounding radius*
0 $2 $3 $4 $5 $6 $7 $8 $9 X,Y pos of 4 corners*
0 Add a 4 corners polygon primitive as box body*
4,1,4,$2,$3,$4,$5,$6,$7,$8,$9,$2,$3,0*
0 Add four circle primitives for the rounded corners*
1,1,$1+$1,$2,$3*
1,1,$1+$1,$4,$5*
1,1,$1+$1,$6,$7*
1,1,$1+$1,$8,$9*
0 Add four rect primitives between the rounded corners*
20,1,$1+$1,$2,$3,$4,$5,0*
20,1,$1+$1,$4,$5,$6,$7,0*
20,1,$1+$1,$6,$7,$8,$9,0*
20,1,$1+$1,$8,$9,$2,$3,0*%
G04 Aperture macros list end*
%ADD10RoundRect,0.250000X0.503814X0.132583X0.132583X0.503814X-0.503814X-0.132583X-0.132583X-0.503814X0*%
%ADD11RoundRect,0.250000X0.159099X-0.512652X0.512652X-0.159099X-0.159099X0.512652X-0.512652X0.159099X0*%
%ADD12RoundRect,0.250000X-0.250000X-0.475000X0.250000X-0.475000X0.250000X0.475000X-0.250000X0.475000X0*%
%ADD13RoundRect,0.250000X0.512652X0.159099X0.159099X0.512652X-0.512652X-0.159099X-0.159099X-0.512652X0*%
%ADD14RoundRect,0.100000X0.380070X0.521491X-0.521491X-0.380070X-0.380070X-0.521491X0.521491X0.380070X0*%
%ADD15RoundRect,0.250000X-0.512652X-0.159099X-0.159099X-0.512652X0.512652X0.159099X0.159099X0.512652X0*%
%ADD16RoundRect,0.250000X-0.503814X-0.132583X-0.132583X-0.503814X0.503814X0.132583X0.132583X0.503814X0*%
G04 APERTURE END LIST*
D10*
%TO.C,R43*%
X139145235Y-121645235D03*
X137854765Y-120354765D03*
%TD*%
D11*
%TO.C,C49*%
X140044249Y-124115751D03*
X141387751Y-122772249D03*
%TD*%
D12*
%TO.C,C72*%
X142189235Y-126478735D03*
X144089235Y-126478735D03*
%TD*%
D13*
%TO.C,C81*%
X145671751Y-109671751D03*
X144328249Y-108328249D03*
%TD*%
D10*
%TO.C,R42*%
X136535235Y-119009235D03*
X135244765Y-117718765D03*
%TD*%
D14*
%TO.C,U9*%
X138907620Y-113955806D03*
X139367239Y-114415425D03*
X139826858Y-114875045D03*
X140286478Y-115334664D03*
X140746097Y-115794283D03*
X141205717Y-116253903D03*
X141665336Y-116713522D03*
X142124955Y-117173142D03*
X142584575Y-117632761D03*
X143044194Y-118092380D03*
X147092380Y-114044194D03*
X146632761Y-113584575D03*
X146173142Y-113124955D03*
X145713522Y-112665336D03*
X145253903Y-112205717D03*
X144794283Y-111746097D03*
X144334664Y-111286478D03*
X143875045Y-110826858D03*
X143415425Y-110367239D03*
X142955806Y-109907620D03*
%TD*%
D15*
%TO.C,C82*%
X140078249Y-118078249D03*
X141421751Y-119421751D03*
%TD*%
D13*
%TO.C,C83*%
X141895751Y-108875751D03*
X140552249Y-107532249D03*
%TD*%
D16*
%TO.C,R44*%
X147854765Y-107354765D03*
X149145235Y-108645235D03*
%TD*%
D13*
%TO.C,C79*%
X138921751Y-116921751D03*
X137578249Y-115578249D03*
%TD*%
D15*
%TO.C,C80*%
X146828249Y-110828249D03*
X148171751Y-112171751D03*
%TD*%
M02*
