M48
; DRILL file {KiCad (7.0.0)} date Fri Dec  8 18:55:45 2023
; FORMAT={-:-/ absolute / inch / decimal}
; #@! TF.CreationDate,2023-12-08T18:55:45+01:00
; #@! TF.GenerationSoftware,Kicad,Pcbnew,(7.0.0)
; #@! TF.FileFunction,Plated,1,4,PTH
FMAT,2
INCH
; #@! TA.AperFunction,Plated,PTH,ComponentDrill
T1C0.0079
; #@! TA.AperFunction,Plated,PTH,ViaDrill
T2C0.0157
; #@! TA.AperFunction,Plated,PTH,ComponentDrill
T3C0.0315
; #@! TA.AperFunction,Plated,PTH,ComponentDrill
T4C0.0374
; #@! TA.AperFunction,Plated,PTH,ComponentDrill
T5C0.0394
; #@! TA.AperFunction,Plated,PTH,ComponentDrill
T6C0.0423
; #@! TA.AperFunction,Plated,PTH,ComponentDrill
T7C0.0433
; #@! TA.AperFunction,Plated,PTH,ComponentDrill
T8C0.3307
%
G90
G05
T1
X4.8354Y-3.4409
X4.8354Y-3.4852
X4.8354Y-3.5295
X4.8354Y-3.5738
X4.8354Y-3.6181
X4.8797Y-3.4409
X4.8797Y-3.4852
X4.8797Y-3.5295
X4.8797Y-3.5738
X4.8797Y-3.6181
X4.924Y-3.4409
X4.924Y-3.4852
X4.924Y-3.5295
X4.924Y-3.5738
X4.924Y-3.6181
X4.9683Y-3.4409
X4.9683Y-3.4852
X4.9683Y-3.5295
X4.9683Y-3.5738
X4.9683Y-3.6181
X5.0126Y-3.4409
X5.0126Y-3.4852
X5.0126Y-3.5295
X5.0126Y-3.5738
X5.0126Y-3.6181
T2
X3.54Y-2.95
X3.54Y-3.0
X3.54Y-3.05
X3.54Y-3.1
X3.54Y-3.15
X3.54Y-3.2
X3.54Y-3.25
X3.54Y-3.39
X3.54Y-3.44
X3.54Y-3.49
X3.54Y-3.54
X3.54Y-3.59
X3.54Y-3.64
X3.54Y-3.8
X3.54Y-3.87
X3.54Y-3.94
X3.54Y-4.01
X3.54Y-4.09
X3.54Y-4.24
X3.54Y-4.31
X3.54Y-4.39
X3.54Y-4.46
X3.62Y-2.95
X3.62Y-3.0
X3.62Y-3.05
X3.62Y-3.1
X3.62Y-3.15
X3.62Y-3.2
X3.62Y-3.25
X3.62Y-3.39
X3.62Y-3.44
X3.62Y-3.49
X3.62Y-3.54
X3.62Y-3.59
X3.62Y-3.64
X3.62Y-3.8
X3.62Y-3.87
X3.62Y-3.94
X3.62Y-4.01
X3.62Y-4.09
X3.62Y-4.24
X3.62Y-4.31
X3.62Y-4.39
X3.69Y-3.54
X4.01Y-3.65
X4.03Y-4.41
X4.05Y-3.39
X4.05Y-3.44
X4.05Y-3.59
X4.05Y-3.64
X4.07Y-2.95
X4.07Y-3.0
X4.07Y-3.05
X4.07Y-3.1
X4.07Y-3.15
X4.07Y-3.2
X4.07Y-3.25
X4.07Y-3.8
X4.07Y-3.87
X4.07Y-3.94
X4.09Y-4.41
X4.1Y-3.39
X4.1Y-3.44
X4.1Y-3.59
X4.1Y-3.64
X4.13Y-2.95
X4.13Y-3.0
X4.13Y-3.05
X4.13Y-3.1
X4.22Y-3.78
X4.28Y-3.95
X4.29Y-4.41
X4.31Y-4.58
X4.31Y-4.66
X4.31Y-4.73
X4.31Y-4.8
X4.31Y-4.87
X4.31Y-4.95
X4.31Y-5.03
X4.32Y-4.19
X4.38Y-3.61
X4.4Y-3.13
X4.4Y-3.19
X4.4Y-3.26
X4.41Y-4.07
X4.43Y-3.78
X4.45Y-3.33
X4.45Y-3.41
X4.45Y-3.49
X4.46Y-3.93
X4.47Y-4.23
X4.48Y-2.61
X4.5126Y-3.2564
X4.54Y-4.29
X4.56Y-4.07
X4.57Y-3.62
X4.61Y-2.81
X4.61Y-4.25
X4.63Y-3.14
X4.66Y-4.21
X4.7Y-2.61
X4.71Y-3.0
X4.74Y-3.15
X4.74Y-3.21
X4.74Y-3.26
X4.78Y-2.87
X4.78Y-3.0
X4.78Y-3.05
X4.78Y-5.05
X4.8Y-2.61
X4.8Y-3.15
X4.8Y-3.21
X4.8Y-3.26
X4.81Y-4.56
X4.82Y-3.77
X4.82Y-3.81
X4.82Y-3.85
X4.82Y-3.89
X4.82Y-5.09
X4.83Y-4.07
X4.86Y-3.15
X4.86Y-3.21
X4.86Y-3.26
X4.86Y-4.42
X4.86Y-4.61
X4.91Y-4.36
X4.91Y-4.66
X4.92Y-3.95
X4.94Y-2.81
X4.95Y-4.62
X4.96Y-4.73
X4.99Y-3.95
X4.99Y-4.58
X5.01Y-4.07
X5.02Y-4.78
X5.03Y-4.24
X5.03Y-4.54
X5.04Y-2.99
X5.04Y-3.09
X5.05Y-4.02
X5.09Y-2.87
X5.09Y-4.85
X5.1Y-2.61
X5.1Y-4.18
X5.1599Y-3.4911
X5.16Y-3.05
X5.17Y-4.11
X5.18Y-3.6934
X5.18Y-4.46
X5.2Y-3.9215
X5.2Y-4.6
X5.21Y-3.85
X5.21Y-5.15
X5.22Y-4.05
X5.22Y-4.83
X5.23Y-4.7906
X5.24Y-2.81
X5.25Y-5.11
X5.28Y-4.68
X5.29Y-4.51
X5.29Y-4.6
X5.29Y-5.15
X5.3082Y-4.7078
X5.3095Y-3.9742
X5.31Y-3.89
X5.32Y-3.0
X5.3233Y-3.1121
X5.33Y-3.51
X5.3302Y-3.2702
X5.3315Y-3.59
X5.3315Y-3.67
X5.3315Y-3.75
X5.3334Y-4.738
X5.34Y-4.34
X5.35Y-3.92
X5.35Y-5.11
X5.36Y-3.43
X5.36Y-4.93
X5.3617Y-4.2728
X5.37Y-4.435
X5.38Y-2.87
X5.38Y-4.51
X5.38Y-5.15
X5.381Y-4.7725
X5.39Y-2.99
X5.39Y-3.04
X5.3969Y-4.7069
X5.4Y-4.38
X5.41Y-3.865
X5.4194Y-4.2557
X5.43Y-4.45
X5.46Y-4.41
X5.46Y-4.84
X5.4658Y-4.1872
X5.48Y-2.63
X5.48Y-3.05
X5.4844Y-4.1525
X5.5Y-4.29
X5.51Y-4.84
X5.5295Y-3.1538
X5.5336Y-3.3436
X5.54Y-5.13
X5.5403Y-4.1198
X5.5437Y-4.9477
X5.55Y-4.4
X5.56Y-2.81
X5.56Y-4.47
X5.57Y-4.08
X5.59Y-3.93
X5.5998Y-4.5402
X5.6Y-4.74
X5.6Y-5.08
X5.61Y-4.2
X5.61Y-4.8
X5.61Y-4.915
X5.6287Y-5.0382
X5.64Y-3.0
X5.6402Y-4.1285
X5.66Y-3.35
X5.68Y-4.85
X5.7Y-2.8
X5.7Y-4.07
X5.7168Y-4.9575
X5.7197Y-4.4836
X5.72Y-4.22
X5.72Y-5.14
X5.7315Y-4.7767
X5.75Y-2.63
X5.75Y-3.35
X5.76Y-2.99
X5.76Y-5.1
X5.77Y-4.81
X5.7833Y-3.1515
X5.79Y-3.09
X5.79Y-4.2
X5.81Y-5.14
X5.8124Y-4.7071
X5.828Y-4.7923
X5.83Y-3.35
X5.84Y-2.81
X5.84Y-3.84
X5.84Y-4.33
X5.8626Y-4.6474
X5.87Y-4.45
X5.89Y-3.88
X5.9Y-4.33
X5.9Y-4.4
X5.9011Y-4.6385
X5.91Y-3.35
X5.91Y-5.13
X5.92Y-3.55
X5.92Y-3.62
X5.92Y-4.29
X5.94Y-2.63
X5.94Y-4.4
X5.9438Y-3.9505
X5.96Y-2.33
X5.96Y-4.95
X6.0Y-3.35
X6.01Y-2.59
X6.01Y-2.77
X6.01Y-2.84
X6.01Y-2.89
X6.01Y-3.55
X6.01Y-3.62
X6.01Y-5.0
X6.0185Y-2.94
X6.02Y-4.46
X6.0348Y-4.4048
X6.06Y-4.05
X6.1Y-4.94
X6.11Y-4.21
X6.11Y-4.56
X6.12Y-4.11
X6.14Y-3.02
X6.15Y-3.2
X6.15Y-3.33
X6.16Y-2.87
X6.16Y-3.72
X6.16Y-3.78
X6.16Y-3.84
X6.17Y-4.87
X6.2Y-2.59
X6.2Y-2.77
X6.2Y-3.17
X6.2Y-3.46
X6.2Y-3.64
X6.22Y-3.02
X6.24Y-4.51
X6.2402Y-4.2202
X6.25Y-4.79
X6.25Y-4.95
X6.27Y-4.16
X6.3Y-3.02
X6.3Y-3.4
X6.3Y-3.46
X6.3Y-3.66
X6.31Y-4.73
X6.32Y-4.86
X6.33Y-3.74
X6.35Y-2.87
X6.35Y-3.4
X6.35Y-3.46
X6.37Y-4.18
X6.37Y-4.67
X6.37Y-4.91
X6.39Y-3.71
X6.39Y-4.27
X6.39Y-4.79
X6.4Y-2.59
X6.4Y-2.77
X6.41Y-3.18
X6.41Y-4.95
X6.43Y-4.23
X6.44Y-4.12
X6.45Y-4.98
X6.46Y-3.74
X6.48Y-2.92
X6.48Y-3.18
X6.49Y-3.38
X6.49Y-3.49
X6.49Y-3.95
X6.49Y-4.07
X6.49Y-5.02
X6.5Y-4.16
X6.51Y-4.83
X6.52Y-4.59
X6.52Y-4.65
X6.52Y-4.71
X6.57Y-4.71
X6.5994Y-2.3134
X6.6Y-2.52
X6.62Y-4.71
X6.63Y-2.28
X6.63Y-3.38
X6.63Y-3.49
X6.64Y-2.43
X6.64Y-2.51
X6.65Y-2.35
X6.65Y-4.24
X6.65Y-4.98
X6.67Y-2.73
X6.67Y-2.79
X6.68Y-2.28
X6.73Y-2.79
X6.74Y-2.28
X6.77Y-2.73
X6.8Y-3.06
X6.8Y-3.12
X6.81Y-2.28
X6.85Y-4.27
X6.85Y-4.83
X6.86Y-4.1
X6.88Y-3.06
X6.88Y-3.12
X6.88Y-3.65
X6.88Y-3.73
X6.95Y-4.77
X6.96Y-3.65
X6.96Y-3.73
X7.02Y-5.04
X7.02Y-5.1
X7.02Y-5.15
X7.03Y-3.65
X7.03Y-3.73
X7.09Y-2.61
X7.09Y-2.68
X7.09Y-5.15
X7.1Y-4.82
X7.15Y-2.68
T3
X6.2008Y-3.2677
X6.2008Y-3.5531
X6.2992Y-3.2677
X6.2992Y-3.5531
X6.5775Y-3.0709
X6.6759Y-3.0709
X6.9783Y-3.435
X6.9783Y-3.5335
X7.2089Y-3.4695
X7.217Y-2.5695
X7.3073Y-3.4695
X7.3154Y-2.5695
T4
X4.5017Y-2.4295
X4.6001Y-2.4295
X4.6986Y-2.4295
X4.797Y-2.4295
X4.8954Y-2.4295
X4.9938Y-2.4295
X5.0923Y-2.4295
X7.2326Y-4.1634
X7.2326Y-4.2618
X7.2326Y-4.3603
X7.2326Y-4.4587
X7.2393Y-4.7524
X7.2393Y-4.8508
X7.2393Y-4.9492
X7.2393Y-5.0476
T5
X5.3937Y-2.4295
X5.4921Y-2.4295
X5.495Y-3.7095
X5.595Y-3.7095
X5.695Y-3.7095
X5.7874Y-2.4295
X5.795Y-3.7095
X5.8858Y-2.4295
X6.06Y-5.1
X6.16Y-5.1
X6.1713Y-2.4295
X6.26Y-5.1
X6.2697Y-2.4295
X6.36Y-5.1
X6.46Y-5.1
X6.56Y-5.1
X6.7772Y-5.1019
X6.7774Y-4.7219
X6.8772Y-5.1019
X6.8774Y-4.7219
X7.2333Y-3.7894
X7.2333Y-3.8878
T6
X7.3354Y-2.8795
X7.3354Y-2.9795
X7.3354Y-3.0795
X7.3354Y-3.1795
T7
X6.524Y-3.2776
X6.524Y-3.5827
X6.624Y-3.2776
X6.624Y-3.5827
X6.724Y-3.2776
X6.724Y-3.5827
T8
X3.8277Y-2.6343
X3.8671Y-4.7603
T0
M30
