%TF.GenerationSoftware,KiCad,Pcbnew,(7.0.0)*%
%TF.CreationDate,2023-12-08T18:55:42+01:00*%
%TF.ProjectId,mg_farm_bms,6d675f66-6172-46d5-9f62-6d732e6b6963,rev?*%
%TF.SameCoordinates,Original*%
%TF.FileFunction,Legend,Bot*%
%TF.FilePolarity,Positive*%
%FSLAX46Y46*%
G04 Gerber Fmt 4.6, Leading zero omitted, Abs format (unit mm)*
G04 Created by KiCad (PCBNEW (7.0.0)) date 2023-12-08 18:55:42*
%MOMM*%
%LPD*%
G01*
G04 APERTURE LIST*
%ADD10C,0.150000*%
%ADD11C,0.120000*%
G04 APERTURE END LIST*
D10*
X179800333Y-97190714D02*
X179800333Y-97857380D01*
X180038428Y-96809761D02*
X180276523Y-97524047D01*
X180276523Y-97524047D02*
X179657476Y-97524047D01*
X179324142Y-97809761D02*
X179228904Y-97857380D01*
X179228904Y-97857380D02*
X179038428Y-97857380D01*
X179038428Y-97857380D02*
X178943190Y-97809761D01*
X178943190Y-97809761D02*
X178895571Y-97714523D01*
X178895571Y-97714523D02*
X178895571Y-97666904D01*
X178895571Y-97666904D02*
X178943190Y-97571666D01*
X178943190Y-97571666D02*
X179038428Y-97524047D01*
X179038428Y-97524047D02*
X179181285Y-97524047D01*
X179181285Y-97524047D02*
X179276523Y-97476428D01*
X179276523Y-97476428D02*
X179324142Y-97381190D01*
X179324142Y-97381190D02*
X179324142Y-97333571D01*
X179324142Y-97333571D02*
X179276523Y-97238333D01*
X179276523Y-97238333D02*
X179181285Y-97190714D01*
X179181285Y-97190714D02*
X179038428Y-97190714D01*
X179038428Y-97190714D02*
X178943190Y-97238333D01*
X177866999Y-97857380D02*
X177866999Y-96857380D01*
X177866999Y-96857380D02*
X177486047Y-96857380D01*
X177486047Y-96857380D02*
X177390809Y-96905000D01*
X177390809Y-96905000D02*
X177343190Y-96952619D01*
X177343190Y-96952619D02*
X177295571Y-97047857D01*
X177295571Y-97047857D02*
X177295571Y-97190714D01*
X177295571Y-97190714D02*
X177343190Y-97285952D01*
X177343190Y-97285952D02*
X177390809Y-97333571D01*
X177390809Y-97333571D02*
X177486047Y-97381190D01*
X177486047Y-97381190D02*
X177866999Y-97381190D01*
X176438428Y-97857380D02*
X176438428Y-97333571D01*
X176438428Y-97333571D02*
X176486047Y-97238333D01*
X176486047Y-97238333D02*
X176581285Y-97190714D01*
X176581285Y-97190714D02*
X176771761Y-97190714D01*
X176771761Y-97190714D02*
X176866999Y-97238333D01*
X176438428Y-97809761D02*
X176533666Y-97857380D01*
X176533666Y-97857380D02*
X176771761Y-97857380D01*
X176771761Y-97857380D02*
X176866999Y-97809761D01*
X176866999Y-97809761D02*
X176914618Y-97714523D01*
X176914618Y-97714523D02*
X176914618Y-97619285D01*
X176914618Y-97619285D02*
X176866999Y-97524047D01*
X176866999Y-97524047D02*
X176771761Y-97476428D01*
X176771761Y-97476428D02*
X176533666Y-97476428D01*
X176533666Y-97476428D02*
X176438428Y-97428809D01*
X175533666Y-97809761D02*
X175628904Y-97857380D01*
X175628904Y-97857380D02*
X175819380Y-97857380D01*
X175819380Y-97857380D02*
X175914618Y-97809761D01*
X175914618Y-97809761D02*
X175962237Y-97762142D01*
X175962237Y-97762142D02*
X176009856Y-97666904D01*
X176009856Y-97666904D02*
X176009856Y-97381190D01*
X176009856Y-97381190D02*
X175962237Y-97285952D01*
X175962237Y-97285952D02*
X175914618Y-97238333D01*
X175914618Y-97238333D02*
X175819380Y-97190714D01*
X175819380Y-97190714D02*
X175628904Y-97190714D01*
X175628904Y-97190714D02*
X175533666Y-97238333D01*
X175105094Y-97857380D02*
X175105094Y-96857380D01*
X175009856Y-97476428D02*
X174724142Y-97857380D01*
X174724142Y-97190714D02*
X175105094Y-97571666D01*
X174438427Y-97190714D02*
X174057475Y-97190714D01*
X174295570Y-96857380D02*
X174295570Y-97714523D01*
X174295570Y-97714523D02*
X174247951Y-97809761D01*
X174247951Y-97809761D02*
X174152713Y-97857380D01*
X174152713Y-97857380D02*
X174057475Y-97857380D01*
X173343189Y-97809761D02*
X173438427Y-97857380D01*
X173438427Y-97857380D02*
X173628903Y-97857380D01*
X173628903Y-97857380D02*
X173724141Y-97809761D01*
X173724141Y-97809761D02*
X173771760Y-97714523D01*
X173771760Y-97714523D02*
X173771760Y-97333571D01*
X173771760Y-97333571D02*
X173724141Y-97238333D01*
X173724141Y-97238333D02*
X173628903Y-97190714D01*
X173628903Y-97190714D02*
X173438427Y-97190714D01*
X173438427Y-97190714D02*
X173343189Y-97238333D01*
X173343189Y-97238333D02*
X173295570Y-97333571D01*
X173295570Y-97333571D02*
X173295570Y-97428809D01*
X173295570Y-97428809D02*
X173771760Y-97524047D01*
X172914617Y-97809761D02*
X172819379Y-97857380D01*
X172819379Y-97857380D02*
X172628903Y-97857380D01*
X172628903Y-97857380D02*
X172533665Y-97809761D01*
X172533665Y-97809761D02*
X172486046Y-97714523D01*
X172486046Y-97714523D02*
X172486046Y-97666904D01*
X172486046Y-97666904D02*
X172533665Y-97571666D01*
X172533665Y-97571666D02*
X172628903Y-97524047D01*
X172628903Y-97524047D02*
X172771760Y-97524047D01*
X172771760Y-97524047D02*
X172866998Y-97476428D01*
X172866998Y-97476428D02*
X172914617Y-97381190D01*
X172914617Y-97381190D02*
X172914617Y-97333571D01*
X172914617Y-97333571D02*
X172866998Y-97238333D01*
X172866998Y-97238333D02*
X172771760Y-97190714D01*
X172771760Y-97190714D02*
X172628903Y-97190714D01*
X172628903Y-97190714D02*
X172533665Y-97238333D01*
X172200331Y-97190714D02*
X171819379Y-97190714D01*
X172057474Y-96857380D02*
X172057474Y-97714523D01*
X172057474Y-97714523D02*
X172009855Y-97809761D01*
X172009855Y-97809761D02*
X171914617Y-97857380D01*
X171914617Y-97857380D02*
X171819379Y-97857380D01*
X170552712Y-97333571D02*
X170409855Y-97381190D01*
X170409855Y-97381190D02*
X170362236Y-97428809D01*
X170362236Y-97428809D02*
X170314617Y-97524047D01*
X170314617Y-97524047D02*
X170314617Y-97666904D01*
X170314617Y-97666904D02*
X170362236Y-97762142D01*
X170362236Y-97762142D02*
X170409855Y-97809761D01*
X170409855Y-97809761D02*
X170505093Y-97857380D01*
X170505093Y-97857380D02*
X170886045Y-97857380D01*
X170886045Y-97857380D02*
X170886045Y-96857380D01*
X170886045Y-96857380D02*
X170552712Y-96857380D01*
X170552712Y-96857380D02*
X170457474Y-96905000D01*
X170457474Y-96905000D02*
X170409855Y-96952619D01*
X170409855Y-96952619D02*
X170362236Y-97047857D01*
X170362236Y-97047857D02*
X170362236Y-97143095D01*
X170362236Y-97143095D02*
X170409855Y-97238333D01*
X170409855Y-97238333D02*
X170457474Y-97285952D01*
X170457474Y-97285952D02*
X170552712Y-97333571D01*
X170552712Y-97333571D02*
X170886045Y-97333571D01*
X169886045Y-97857380D02*
X169886045Y-96857380D01*
X169886045Y-96857380D02*
X169552712Y-97571666D01*
X169552712Y-97571666D02*
X169219379Y-96857380D01*
X169219379Y-96857380D02*
X169219379Y-97857380D01*
X168790807Y-97809761D02*
X168647950Y-97857380D01*
X168647950Y-97857380D02*
X168409855Y-97857380D01*
X168409855Y-97857380D02*
X168314617Y-97809761D01*
X168314617Y-97809761D02*
X168266998Y-97762142D01*
X168266998Y-97762142D02*
X168219379Y-97666904D01*
X168219379Y-97666904D02*
X168219379Y-97571666D01*
X168219379Y-97571666D02*
X168266998Y-97476428D01*
X168266998Y-97476428D02*
X168314617Y-97428809D01*
X168314617Y-97428809D02*
X168409855Y-97381190D01*
X168409855Y-97381190D02*
X168600331Y-97333571D01*
X168600331Y-97333571D02*
X168695569Y-97285952D01*
X168695569Y-97285952D02*
X168743188Y-97238333D01*
X168743188Y-97238333D02*
X168790807Y-97143095D01*
X168790807Y-97143095D02*
X168790807Y-97047857D01*
X168790807Y-97047857D02*
X168743188Y-96952619D01*
X168743188Y-96952619D02*
X168695569Y-96905000D01*
X168695569Y-96905000D02*
X168600331Y-96857380D01*
X168600331Y-96857380D02*
X168362236Y-96857380D01*
X168362236Y-96857380D02*
X168219379Y-96905000D01*
X167190807Y-97857380D02*
X167190807Y-97190714D01*
X167190807Y-97381190D02*
X167143188Y-97285952D01*
X167143188Y-97285952D02*
X167095569Y-97238333D01*
X167095569Y-97238333D02*
X167000331Y-97190714D01*
X167000331Y-97190714D02*
X166905093Y-97190714D01*
X166190807Y-97809761D02*
X166286045Y-97857380D01*
X166286045Y-97857380D02*
X166476521Y-97857380D01*
X166476521Y-97857380D02*
X166571759Y-97809761D01*
X166571759Y-97809761D02*
X166619378Y-97714523D01*
X166619378Y-97714523D02*
X166619378Y-97333571D01*
X166619378Y-97333571D02*
X166571759Y-97238333D01*
X166571759Y-97238333D02*
X166476521Y-97190714D01*
X166476521Y-97190714D02*
X166286045Y-97190714D01*
X166286045Y-97190714D02*
X166190807Y-97238333D01*
X166190807Y-97238333D02*
X166143188Y-97333571D01*
X166143188Y-97333571D02*
X166143188Y-97428809D01*
X166143188Y-97428809D02*
X166619378Y-97524047D01*
X165809854Y-97190714D02*
X165571759Y-97857380D01*
X165571759Y-97857380D02*
X165333664Y-97190714D01*
X163828902Y-97857380D02*
X164400330Y-97857380D01*
X164114616Y-97857380D02*
X164114616Y-96857380D01*
X164114616Y-96857380D02*
X164209854Y-97000238D01*
X164209854Y-97000238D02*
X164305092Y-97095476D01*
X164305092Y-97095476D02*
X164400330Y-97143095D01*
X180228904Y-99477380D02*
X180228904Y-98477380D01*
X180228904Y-98477380D02*
X179895571Y-99191666D01*
X179895571Y-99191666D02*
X179562238Y-98477380D01*
X179562238Y-98477380D02*
X179562238Y-99477380D01*
X178657476Y-99477380D02*
X178657476Y-98953571D01*
X178657476Y-98953571D02*
X178705095Y-98858333D01*
X178705095Y-98858333D02*
X178800333Y-98810714D01*
X178800333Y-98810714D02*
X178990809Y-98810714D01*
X178990809Y-98810714D02*
X179086047Y-98858333D01*
X178657476Y-99429761D02*
X178752714Y-99477380D01*
X178752714Y-99477380D02*
X178990809Y-99477380D01*
X178990809Y-99477380D02*
X179086047Y-99429761D01*
X179086047Y-99429761D02*
X179133666Y-99334523D01*
X179133666Y-99334523D02*
X179133666Y-99239285D01*
X179133666Y-99239285D02*
X179086047Y-99144047D01*
X179086047Y-99144047D02*
X178990809Y-99096428D01*
X178990809Y-99096428D02*
X178752714Y-99096428D01*
X178752714Y-99096428D02*
X178657476Y-99048809D01*
X178276523Y-99477380D02*
X177752714Y-98810714D01*
X178276523Y-98810714D02*
X177752714Y-99477380D01*
X177371761Y-99477380D02*
X177371761Y-98477380D01*
X177371761Y-98477380D02*
X177038428Y-99191666D01*
X177038428Y-99191666D02*
X176705095Y-98477380D01*
X176705095Y-98477380D02*
X176705095Y-99477380D01*
X175800333Y-99477380D02*
X175800333Y-98953571D01*
X175800333Y-98953571D02*
X175847952Y-98858333D01*
X175847952Y-98858333D02*
X175943190Y-98810714D01*
X175943190Y-98810714D02*
X176133666Y-98810714D01*
X176133666Y-98810714D02*
X176228904Y-98858333D01*
X175800333Y-99429761D02*
X175895571Y-99477380D01*
X175895571Y-99477380D02*
X176133666Y-99477380D01*
X176133666Y-99477380D02*
X176228904Y-99429761D01*
X176228904Y-99429761D02*
X176276523Y-99334523D01*
X176276523Y-99334523D02*
X176276523Y-99239285D01*
X176276523Y-99239285D02*
X176228904Y-99144047D01*
X176228904Y-99144047D02*
X176133666Y-99096428D01*
X176133666Y-99096428D02*
X175895571Y-99096428D01*
X175895571Y-99096428D02*
X175800333Y-99048809D01*
X175419380Y-99477380D02*
X174895571Y-98810714D01*
X175419380Y-98810714D02*
X174895571Y-99477380D01*
%TO.C,C72*%
X143782092Y-128430877D02*
X143829711Y-128478496D01*
X143829711Y-128478496D02*
X143972568Y-128526115D01*
X143972568Y-128526115D02*
X144067806Y-128526115D01*
X144067806Y-128526115D02*
X144210663Y-128478496D01*
X144210663Y-128478496D02*
X144305901Y-128383258D01*
X144305901Y-128383258D02*
X144353520Y-128288020D01*
X144353520Y-128288020D02*
X144401139Y-128097544D01*
X144401139Y-128097544D02*
X144401139Y-127954687D01*
X144401139Y-127954687D02*
X144353520Y-127764211D01*
X144353520Y-127764211D02*
X144305901Y-127668973D01*
X144305901Y-127668973D02*
X144210663Y-127573735D01*
X144210663Y-127573735D02*
X144067806Y-127526115D01*
X144067806Y-127526115D02*
X143972568Y-127526115D01*
X143972568Y-127526115D02*
X143829711Y-127573735D01*
X143829711Y-127573735D02*
X143782092Y-127621354D01*
X143448758Y-127526115D02*
X142782092Y-127526115D01*
X142782092Y-127526115D02*
X143210663Y-128526115D01*
X142448758Y-127621354D02*
X142401139Y-127573735D01*
X142401139Y-127573735D02*
X142305901Y-127526115D01*
X142305901Y-127526115D02*
X142067806Y-127526115D01*
X142067806Y-127526115D02*
X141972568Y-127573735D01*
X141972568Y-127573735D02*
X141924949Y-127621354D01*
X141924949Y-127621354D02*
X141877330Y-127716592D01*
X141877330Y-127716592D02*
X141877330Y-127811830D01*
X141877330Y-127811830D02*
X141924949Y-127954687D01*
X141924949Y-127954687D02*
X142496377Y-128526115D01*
X142496377Y-128526115D02*
X141877330Y-128526115D01*
%TO.C,U9*%
X139537418Y-110519922D02*
X140109838Y-111092342D01*
X140109838Y-111092342D02*
X140143510Y-111193357D01*
X140143510Y-111193357D02*
X140143510Y-111260701D01*
X140143510Y-111260701D02*
X140109838Y-111361716D01*
X140109838Y-111361716D02*
X139975151Y-111496403D01*
X139975151Y-111496403D02*
X139874136Y-111530075D01*
X139874136Y-111530075D02*
X139806792Y-111530075D01*
X139806792Y-111530075D02*
X139705777Y-111496403D01*
X139705777Y-111496403D02*
X139133357Y-110923983D01*
X139470075Y-112001479D02*
X139335388Y-112136166D01*
X139335388Y-112136166D02*
X139234373Y-112169838D01*
X139234373Y-112169838D02*
X139167029Y-112169838D01*
X139167029Y-112169838D02*
X138998670Y-112136166D01*
X138998670Y-112136166D02*
X138830312Y-112035151D01*
X138830312Y-112035151D02*
X138560938Y-111765777D01*
X138560938Y-111765777D02*
X138527266Y-111664762D01*
X138527266Y-111664762D02*
X138527266Y-111597418D01*
X138527266Y-111597418D02*
X138560938Y-111496403D01*
X138560938Y-111496403D02*
X138695625Y-111361716D01*
X138695625Y-111361716D02*
X138796640Y-111328044D01*
X138796640Y-111328044D02*
X138863983Y-111328044D01*
X138863983Y-111328044D02*
X138964999Y-111361716D01*
X138964999Y-111361716D02*
X139133357Y-111530075D01*
X139133357Y-111530075D02*
X139167029Y-111631090D01*
X139167029Y-111631090D02*
X139167029Y-111698434D01*
X139167029Y-111698434D02*
X139133357Y-111799449D01*
X139133357Y-111799449D02*
X138998670Y-111934136D01*
X138998670Y-111934136D02*
X138897655Y-111967808D01*
X138897655Y-111967808D02*
X138830312Y-111967808D01*
X138830312Y-111967808D02*
X138729296Y-111934136D01*
D11*
%TO.C,R43*%
X138140835Y-121680282D02*
X137819718Y-121359165D01*
X139180282Y-120640835D02*
X138859165Y-120319718D01*
%TO.C,C49*%
X140011543Y-123109010D02*
X140381010Y-122739543D01*
X141050990Y-124148457D02*
X141420457Y-123778990D01*
%TO.C,C72*%
X142877983Y-125743735D02*
X143400487Y-125743735D01*
X142877983Y-127213735D02*
X143400487Y-127213735D01*
%TO.C,C81*%
X144665010Y-109704457D02*
X144295543Y-109334990D01*
X145704457Y-108665010D02*
X145334990Y-108295543D01*
%TO.C,R42*%
X135530835Y-119044282D02*
X135209718Y-118723165D01*
X136570282Y-118004835D02*
X136249165Y-117683718D01*
%TO.C,U9*%
X140606444Y-111606444D02*
X139050809Y-113162078D01*
X140606444Y-111606444D02*
X143152028Y-109060859D01*
X145393556Y-116393556D02*
X143837922Y-117949191D01*
X145393556Y-116393556D02*
X146949191Y-114837922D01*
%TO.C,C82*%
X141084990Y-118045543D02*
X141454457Y-118415010D01*
X140045543Y-119084990D02*
X140415010Y-119454457D01*
%TO.C,C83*%
X140889010Y-108908457D02*
X140519543Y-108538990D01*
X141928457Y-107869010D02*
X141558990Y-107499543D01*
%TO.C,R44*%
X148859165Y-107319718D02*
X149180282Y-107640835D01*
X147819718Y-108359165D02*
X148140835Y-108680282D01*
%TO.C,C79*%
X137915010Y-116954457D02*
X137545543Y-116584990D01*
X138954457Y-115915010D02*
X138584990Y-115545543D01*
%TO.C,C80*%
X147834990Y-110795543D02*
X148204457Y-111165010D01*
X146795543Y-111834990D02*
X147165010Y-112204457D01*
%TD*%
M02*
