%TF.GenerationSoftware,KiCad,Pcbnew,(7.0.0)*%
%TF.CreationDate,2023-12-08T18:55:42+01:00*%
%TF.ProjectId,mg_farm_bms,6d675f66-6172-46d5-9f62-6d732e6b6963,rev?*%
%TF.SameCoordinates,Original*%
%TF.FileFunction,Soldermask,Bot*%
%TF.FilePolarity,Negative*%
%FSLAX46Y46*%
G04 Gerber Fmt 4.6, Leading zero omitted, Abs format (unit mm)*
G04 Created by KiCad (PCBNEW (7.0.0)) date 2023-12-08 18:55:42*
%MOMM*%
%LPD*%
G01*
G04 APERTURE LIST*
G04 Aperture macros list*
%AMRoundRect*
0 Rectangle with rounded corners*
0 $1 Rounding radius*
0 $2 $3 $4 $5 $6 $7 $8 $9 X,Y pos of 4 corners*
0 Add a 4 corners polygon primitive as box body*
4,1,4,$2,$3,$4,$5,$6,$7,$8,$9,$2,$3,0*
0 Add four circle primitives for the rounded corners*
1,1,$1+$1,$2,$3*
1,1,$1+$1,$4,$5*
1,1,$1+$1,$6,$7*
1,1,$1+$1,$8,$9*
0 Add four rect primitives between the rounded corners*
20,1,$1+$1,$2,$3,$4,$5,0*
20,1,$1+$1,$4,$5,$6,$7,0*
20,1,$1+$1,$6,$7,$8,$9,0*
20,1,$1+$1,$8,$9,$2,$3,0*%
G04 Aperture macros list end*
%ADD10R,2.250000X1.750000*%
%ADD11O,2.250000X1.750000*%
%ADD12R,1.700000X1.700000*%
%ADD13O,1.700000X1.700000*%
%ADD14RoundRect,0.250000X0.600000X0.750000X-0.600000X0.750000X-0.600000X-0.750000X0.600000X-0.750000X0*%
%ADD15O,1.700000X2.000000*%
%ADD16R,1.600000X1.600000*%
%ADD17C,1.600000*%
%ADD18C,3.200000*%
%ADD19RoundRect,0.250000X0.600000X0.725000X-0.600000X0.725000X-0.600000X-0.725000X0.600000X-0.725000X0*%
%ADD20O,1.700000X1.950000*%
%ADD21R,1.905000X2.000000*%
%ADD22O,1.905000X2.000000*%
%ADD23RoundRect,0.250000X0.750000X-0.600000X0.750000X0.600000X-0.750000X0.600000X-0.750000X-0.600000X0*%
%ADD24O,2.000000X1.700000*%
%ADD25C,16.800000*%
%ADD26RoundRect,0.250000X0.725000X-0.600000X0.725000X0.600000X-0.725000X0.600000X-0.725000X-0.600000X0*%
%ADD27O,1.950000X1.700000*%
%ADD28RoundRect,0.250000X0.503814X0.132583X0.132583X0.503814X-0.503814X-0.132583X-0.132583X-0.503814X0*%
%ADD29RoundRect,0.250000X0.159099X-0.512652X0.512652X-0.159099X-0.159099X0.512652X-0.512652X0.159099X0*%
%ADD30RoundRect,0.250000X-0.250000X-0.475000X0.250000X-0.475000X0.250000X0.475000X-0.250000X0.475000X0*%
%ADD31RoundRect,0.250000X0.512652X0.159099X0.159099X0.512652X-0.512652X-0.159099X-0.159099X-0.512652X0*%
%ADD32RoundRect,0.100000X0.380070X0.521491X-0.521491X-0.380070X-0.380070X-0.521491X0.521491X0.380070X0*%
%ADD33RoundRect,0.250000X-0.512652X-0.159099X-0.159099X-0.512652X0.512652X0.159099X0.159099X0.512652X0*%
%ADD34RoundRect,0.250000X-0.503814X-0.132583X-0.132583X-0.503814X0.503814X0.132583X0.132583X0.503814X0*%
G04 APERTURE END LIST*
D10*
%TO.C,PS2*%
X186319234Y-80758734D03*
D11*
X186319234Y-78218734D03*
X186319234Y-75678734D03*
X186319234Y-73138734D03*
%TD*%
D12*
%TO.C,JP2*%
X172146999Y-119934999D03*
D13*
X174686999Y-119934999D03*
%TD*%
D14*
%TO.C,J1*%
X159250000Y-61708735D03*
D15*
X156749999Y-61708734D03*
%TD*%
D16*
%TO.C,C43*%
X159999999Y-90249999D03*
D17*
X157500000Y-90250000D03*
%TD*%
D16*
%TO.C,C48*%
X159999999Y-82999999D03*
D17*
X157500000Y-83000000D03*
%TD*%
D16*
%TO.C,C39*%
X185811234Y-65264734D03*
D17*
X183311235Y-65264735D03*
%TD*%
D18*
%TO.C,H1*%
X109000000Y-74000000D03*
%TD*%
D14*
%TO.C,J4*%
X139500000Y-61708735D03*
D15*
X136999999Y-61708734D03*
%TD*%
D18*
%TO.C,H2*%
X174000000Y-74000000D03*
%TD*%
D19*
%TO.C,J2*%
X129343235Y-61708735D03*
D20*
X126843234Y-61708734D03*
X124343234Y-61708734D03*
X121843234Y-61708734D03*
X119343234Y-61708734D03*
X116843234Y-61708734D03*
X114343234Y-61708734D03*
%TD*%
D21*
%TO.C,U10*%
X170789999Y-90999999D03*
D22*
X168249999Y-90999999D03*
X165709999Y-90999999D03*
%TD*%
D12*
%TO.C,JP3*%
X172141999Y-129586999D03*
D13*
X174681999Y-129586999D03*
%TD*%
D12*
%TO.C,J10*%
X166623999Y-129539999D03*
D13*
X164083999Y-129539999D03*
X161543999Y-129539999D03*
X159003999Y-129539999D03*
X156463999Y-129539999D03*
X153923999Y-129539999D03*
%TD*%
D21*
%TO.C,U5*%
X170789999Y-83249999D03*
D22*
X168249999Y-83249999D03*
X165709999Y-83249999D03*
%TD*%
D23*
%TO.C,J9*%
X183725000Y-98750000D03*
D24*
X183724999Y-96249999D03*
%TD*%
D18*
%TO.C,H4*%
X117000000Y-114000000D03*
%TD*%
D25*
%TO.C,J7*%
X97223235Y-66912235D03*
%TD*%
D14*
%TO.C,J3*%
X149500000Y-61708735D03*
D15*
X146999999Y-61708734D03*
%TD*%
D18*
%TO.C,H3*%
X174000000Y-114000000D03*
%TD*%
D16*
%TO.C,C44*%
X177249999Y-87249999D03*
D17*
X177250000Y-89750000D03*
%TD*%
D26*
%TO.C,J8*%
X183879000Y-128210000D03*
D27*
X183878999Y-125709999D03*
X183878999Y-123209999D03*
X183878999Y-120709999D03*
%TD*%
D25*
%TO.C,J11*%
X98223235Y-120912235D03*
%TD*%
D16*
%TO.C,C18*%
X183104855Y-88124734D03*
D17*
X185604856Y-88124735D03*
%TD*%
D12*
%TO.C,J5*%
X147193234Y-94220734D03*
D13*
X144653234Y-94220734D03*
X142113234Y-94220734D03*
X139573234Y-94220734D03*
%TD*%
D26*
%TO.C,J6*%
X183707765Y-113250765D03*
D27*
X183707764Y-110750764D03*
X183707764Y-108250764D03*
X183707764Y-105750764D03*
%TD*%
D16*
%TO.C,C47*%
X167067619Y-77999999D03*
D17*
X169567620Y-78000000D03*
%TD*%
D28*
%TO.C,R43*%
X139145235Y-121645235D03*
X137854765Y-120354765D03*
%TD*%
D29*
%TO.C,C49*%
X140044249Y-124115751D03*
X141387751Y-122772249D03*
%TD*%
D30*
%TO.C,C72*%
X142189235Y-126478735D03*
X144089235Y-126478735D03*
%TD*%
D31*
%TO.C,C81*%
X145671751Y-109671751D03*
X144328249Y-108328249D03*
%TD*%
D28*
%TO.C,R42*%
X136535235Y-119009235D03*
X135244765Y-117718765D03*
%TD*%
D32*
%TO.C,U9*%
X138907620Y-113955806D03*
X139367239Y-114415425D03*
X139826858Y-114875045D03*
X140286478Y-115334664D03*
X140746097Y-115794283D03*
X141205717Y-116253903D03*
X141665336Y-116713522D03*
X142124955Y-117173142D03*
X142584575Y-117632761D03*
X143044194Y-118092380D03*
X147092380Y-114044194D03*
X146632761Y-113584575D03*
X146173142Y-113124955D03*
X145713522Y-112665336D03*
X145253903Y-112205717D03*
X144794283Y-111746097D03*
X144334664Y-111286478D03*
X143875045Y-110826858D03*
X143415425Y-110367239D03*
X142955806Y-109907620D03*
%TD*%
D33*
%TO.C,C82*%
X140078249Y-118078249D03*
X141421751Y-119421751D03*
%TD*%
D31*
%TO.C,C83*%
X141895751Y-108875751D03*
X140552249Y-107532249D03*
%TD*%
D34*
%TO.C,R44*%
X147854765Y-107354765D03*
X149145235Y-108645235D03*
%TD*%
D31*
%TO.C,C79*%
X138921751Y-116921751D03*
X137578249Y-115578249D03*
%TD*%
D33*
%TO.C,C80*%
X146828249Y-110828249D03*
X148171751Y-112171751D03*
%TD*%
M02*
